<svg id="visual" viewBox="0 0 960 540" width="960" height="540" xmlns="http://www.w3.org/2000/svg" xmlns:xlink="http://www.w3.org/1999/xlink" version="1.1"><rect x="0" y="0" width="960" height="540" fill="#001220"></rect><path d="M0 140L14.5 139.5C29 139 58 138 87.2 135C116.3 132 145.7 127 174.8 122.5C204 118 233 114 262 113.2C291 112.3 320 114.7 349 116C378 117.3 407 117.7 436.2 117.2C465.3 116.7 494.7 115.3 523.8 119.2C553 123 582 132 611 136C640 140 669 139 698 136.3C727 133.7 756 129.3 785.2 129.3C814.3 129.3 843.7 133.7 872.8 133.5C902 133.3 931 128.7 945.5 126.3L960 124L960 0L945.5 0C931 0 902 0 872.8 0C843.7 0 814.3 0 785.2 0C756 0 727 0 698 0C669 0 640 0 611 0C582 0 553 0 523.8 0C494.7 0 465.3 0 436.2 0C407 0 378 0 349 0C320 0 291 0 262 0C233 0 204 0 174.8 0C145.7 0 116.3 0 87.2 0C58 0 29 0 14.5 0L0 0Z" fill="#6600ff"></path><path d="M0 103L14.5 106.7C29 110.3 58 117.7 87.2 117C116.3 116.3 145.7 107.7 174.8 107.5C204 107.3 233 115.7 262 120C291 124.3 320 124.7 349 119.8C378 115 407 105 436.2 102.2C465.3 99.3 494.7 103.7 523.8 105.3C553 107 582 106 611 107.2C640 108.3 669 111.7 698 110.7C727 109.7 756 104.3 785.2 106C814.3 107.7 843.7 116.3 872.8 119.2C902 122 931 119 945.5 117.5L960 116L960 0L945.5 0C931 0 902 0 872.8 0C843.7 0 814.3 0 785.2 0C756 0 727 0 698 0C669 0 640 0 611 0C582 0 553 0 523.8 0C494.7 0 465.3 0 436.2 0C407 0 378 0 349 0C320 0 291 0 262 0C233 0 204 0 174.8 0C145.7 0 116.3 0 87.2 0C58 0 29 0 14.5 0L0 0Z" fill="#b500dd"></path><path d="M0 91L14.5 91.3C29 91.7 58 92.3 87.2 90.3C116.3 88.3 145.7 83.7 174.8 81.5C204 79.3 233 79.7 262 79.5C291 79.3 320 78.7 349 80.7C378 82.7 407 87.3 436.2 92.2C465.3 97 494.7 102 523.8 102.5C553 103 582 99 611 99.3C640 99.7 669 104.3 698 105C727 105.7 756 102.3 785.2 99.8C814.3 97.3 843.7 95.7 872.8 95.5C902 95.3 931 96.7 945.5 97.3L960 98L960 0L945.5 0C931 0 902 0 872.8 0C843.7 0 814.3 0 785.2 0C756 0 727 0 698 0C669 0 640 0 611 0C582 0 553 0 523.8 0C494.7 0 465.3 0 436.2 0C407 0 378 0 349 0C320 0 291 0 262 0C233 0 204 0 174.8 0C145.7 0 116.3 0 87.2 0C58 0 29 0 14.5 0L0 0Z" fill="#dd00bc"></path><path d="M0 92L14.5 87.7C29 83.3 58 74.7 87.2 74C116.3 73.3 145.7 80.7 174.8 82C204 83.3 233 78.7 262 76.3C291 74 320 74 349 72.8C378 71.7 407 69.3 436.2 72C465.3 74.7 494.7 82.3 523.8 84.5C553 86.7 582 83.3 611 79C640 74.7 669 69.3 698 71C727 72.7 756 81.3 785.2 82.8C814.3 84.3 843.7 78.7 872.8 75.3C902 72 931 71 945.5 70.5L960 70L960 0L945.5 0C931 0 902 0 872.8 0C843.7 0 814.3 0 785.2 0C756 0 727 0 698 0C669 0 640 0 611 0C582 0 553 0 523.8 0C494.7 0 465.3 0 436.2 0C407 0 378 0 349 0C320 0 291 0 262 0C233 0 204 0 174.8 0C145.7 0 116.3 0 87.2 0C58 0 29 0 14.5 0L0 0Z" fill="#f400a1"></path><path d="M0 52L14.5 53.3C29 54.7 58 57.3 87.2 57C116.3 56.7 145.7 53.3 174.8 52.3C204 51.3 233 52.7 262 53C291 53.3 320 52.7 349 53.8C378 55 407 58 436.2 61C465.3 64 494.7 67 523.8 66.2C553 65.3 582 60.7 611 60.3C640 60 669 64 698 67C727 70 756 72 785.2 70C814.3 68 843.7 62 872.8 59C902 56 931 56 945.5 56L960 56L960 0L945.5 0C931 0 902 0 872.8 0C843.7 0 814.3 0 785.2 0C756 0 727 0 698 0C669 0 640 0 611 0C582 0 553 0 523.8 0C494.7 0 465.3 0 436.2 0C407 0 378 0 349 0C320 0 291 0 262 0C233 0 204 0 174.8 0C145.7 0 116.3 0 87.2 0C58 0 29 0 14.5 0L0 0Z" fill="#fe1d8b"></path><path d="M0 56L14.5 52.7C29 49.3 58 42.7 87.2 40.7C116.3 38.7 145.7 41.3 174.8 44.3C204 47.3 233 50.7 262 50.5C291 50.3 320 46.7 349 43.8C378 41 407 39 436.2 40.5C465.3 42 494.7 47 523.8 46.8C553 46.7 582 41.3 611 41.7C640 42 669 48 698 48.3C727 48.7 756 43.3 785.2 42.2C814.3 41 843.7 44 872.8 46.8C902 49.7 931 52.3 945.5 53.7L960 55L960 0L945.5 0C931 0 902 0 872.8 0C843.7 0 814.3 0 785.2 0C756 0 727 0 698 0C669 0 640 0 611 0C582 0 553 0 523.8 0C494.7 0 465.3 0 436.2 0C407 0 378 0 349 0C320 0 291 0 262 0C233 0 204 0 174.8 0C145.7 0 116.3 0 87.2 0C58 0 29 0 14.5 0L0 0Z" fill="#ff3e79"></path><path d="M0 29L14.5 30.5C29 32 58 35 87.2 36.7C116.3 38.3 145.7 38.7 174.8 36.8C204 35 233 31 262 31.3C291 31.7 320 36.3 349 36.5C378 36.7 407 32.3 436.2 32.2C465.3 32 494.7 36 523.8 35.3C553 34.7 582 29.3 611 26.5C640 23.7 669 23.3 698 24C727 24.7 756 26.3 785.2 27.8C814.3 29.3 843.7 30.7 872.8 32.2C902 33.7 931 35.3 945.5 36.2L960 37L960 0L945.5 0C931 0 902 0 872.8 0C843.7 0 814.3 0 785.2 0C756 0 727 0 698 0C669 0 640 0 611 0C582 0 553 0 523.8 0C494.7 0 465.3 0 436.2 0C407 0 378 0 349 0C320 0 291 0 262 0C233 0 204 0 174.8 0C145.7 0 116.3 0 87.2 0C58 0 29 0 14.5 0L0 0Z" fill="#ff586a"></path><path d="M0 22L14.5 22C29 22 58 22 87.2 21.3C116.3 20.7 145.7 19.3 174.8 17.2C204 15 233 12 262 11.5C291 11 320 13 349 15.7C378 18.3 407 21.7 436.2 21.7C465.3 21.7 494.7 18.3 523.8 17.2C553 16 582 17 611 16.5C640 16 669 14 698 13.8C727 13.7 756 15.3 785.2 17.5C814.3 19.7 843.7 22.3 872.8 22C902 21.7 931 18.3 945.5 16.7L960 15L960 0L945.5 0C931 0 902 0 872.8 0C843.7 0 814.3 0 785.2 0C756 0 727 0 698 0C669 0 640 0 611 0C582 0 553 0 523.8 0C494.7 0 465.3 0 436.2 0C407 0 378 0 349 0C320 0 291 0 262 0C233 0 204 0 174.8 0C145.7 0 116.3 0 87.2 0C58 0 29 0 14.5 0L0 0Z" fill="#ff6f61"></path></svg>