<svg id="visual" viewBox="0 0 960 540" width="960" height="540" xmlns="http://www.w3.org/2000/svg" xmlns:xlink="http://www.w3.org/1999/xlink" version="1.1"><rect x="0" y="0" width="960" height="540" fill="#001220"></rect><path d="M0 351L14.5 351.7C29 352.3 58 353.7 87.2 357.7C116.3 361.7 145.7 368.3 174.8 374.2C204 380 233 385 262 386.2C291 387.3 320 384.7 349 383C378 381.3 407 380.7 436.2 381.2C465.3 381.7 494.7 383.3 523.8 378.3C553 373.3 582 361.7 611 356.5C640 351.3 669 352.7 698 356.2C727 359.7 756 365.3 785.2 365.2C814.3 365 843.7 359 872.8 359.3C902 359.7 931 366.3 945.5 369.7L960 373L960 541L945.5 541C931 541 902 541 872.8 541C843.7 541 814.3 541 785.2 541C756 541 727 541 698 541C669 541 640 541 611 541C582 541 553 541 523.8 541C494.7 541 465.3 541 436.2 541C407 541 378 541 349 541C320 541 291 541 262 541C233 541 204 541 174.8 541C145.7 541 116.3 541 87.2 541C58 541 29 541 14.5 541L0 541Z" fill="#6600ff"></path><path d="M0 400L14.5 395.2C29 390.3 58 380.7 87.2 381.7C116.3 382.7 145.7 394.3 174.8 394.7C204 395 233 384 262 378.3C291 372.7 320 372.3 349 378.8C378 385.3 407 398.7 436.2 402.3C465.3 406 494.7 400 523.8 397.7C553 395.3 582 396.7 611 395.2C640 393.7 669 389.3 698 390.5C727 391.7 756 398.3 785.2 396.2C814.3 394 843.7 383 872.8 379.5C902 376 931 380 945.5 382L960 384L960 541L945.5 541C931 541 902 541 872.8 541C843.7 541 814.3 541 785.2 541C756 541 727 541 698 541C669 541 640 541 611 541C582 541 553 541 523.8 541C494.7 541 465.3 541 436.2 541C407 541 378 541 349 541C320 541 291 541 262 541C233 541 204 541 174.8 541C145.7 541 116.3 541 87.2 541C58 541 29 541 14.5 541L0 541Z" fill="#b500dd"></path><path d="M0 417L14.5 416.5C29 416 58 415 87.2 417.5C116.3 420 145.7 426 174.8 428.7C204 431.3 233 430.7 262 431C291 431.3 320 432.7 349 430.3C378 428 407 422 436.2 415.5C465.3 409 494.7 402 523.8 401.2C553 400.3 582 405.7 611 405.2C640 404.7 669 398.3 698 397.5C727 396.7 756 401.3 785.2 404.8C814.3 408.3 843.7 410.7 872.8 410.8C902 411 931 409 945.5 408L960 407L960 541L945.5 541C931 541 902 541 872.8 541C843.7 541 814.3 541 785.2 541C756 541 727 541 698 541C669 541 640 541 611 541C582 541 553 541 523.8 541C494.7 541 465.3 541 436.2 541C407 541 378 541 349 541C320 541 291 541 262 541C233 541 204 541 174.8 541C145.7 541 116.3 541 87.2 541C58 541 29 541 14.5 541L0 541Z" fill="#dd00bc"></path><path d="M0 415L14.5 420.8C29 426.7 58 438.3 87.2 439.2C116.3 440 145.7 430 174.8 428.2C204 426.3 233 432.7 262 435.8C291 439 320 439 349 440.5C378 442 407 445 436.2 441.5C465.3 438 494.7 428 523.8 425.2C553 422.3 582 426.7 611 432.3C640 438 669 445 698 442.7C727 440.3 756 428.7 785.2 426.7C814.3 424.7 843.7 432.3 872.8 437C902 441.7 931 443.3 945.5 444.2L960 445L960 541L945.5 541C931 541 902 541 872.8 541C843.7 541 814.3 541 785.2 541C756 541 727 541 698 541C669 541 640 541 611 541C582 541 553 541 523.8 541C494.7 541 465.3 541 436.2 541C407 541 378 541 349 541C320 541 291 541 262 541C233 541 204 541 174.8 541C145.7 541 116.3 541 87.2 541C58 541 29 541 14.5 541L0 541Z" fill="#f400a1"></path><path d="M0 468L14.5 466.3C29 464.7 58 461.3 87.2 461.8C116.3 462.3 145.7 466.7 174.8 468C204 469.3 233 467.7 262 467.2C291 466.7 320 467.3 349 465.8C378 464.3 407 460.7 436.2 456.8C465.3 453 494.7 449 523.8 450C553 451 582 457 611 457.3C640 457.7 669 452.3 698 448.5C727 444.7 756 442.3 785.2 445.2C814.3 448 843.7 456 872.8 459.8C902 463.7 931 463.3 945.5 463.2L960 463L960 541L945.5 541C931 541 902 541 872.8 541C843.7 541 814.3 541 785.2 541C756 541 727 541 698 541C669 541 640 541 611 541C582 541 553 541 523.8 541C494.7 541 465.3 541 436.2 541C407 541 378 541 349 541C320 541 291 541 262 541C233 541 204 541 174.8 541C145.7 541 116.3 541 87.2 541C58 541 29 541 14.5 541L0 541Z" fill="#fe1d8b"></path><path d="M0 463L14.5 467.3C29 471.7 58 480.3 87.2 483C116.3 485.7 145.7 482.3 174.8 478.3C204 474.3 233 469.7 262 469.8C291 470 320 475 349 479C378 483 407 486 436.2 484C465.3 482 494.7 475 523.8 475C553 475 582 482 611 481.7C640 481.3 669 473.7 698 473.3C727 473 756 480 785.2 481.5C814.3 483 843.7 479 872.8 475.3C902 471.7 931 468.3 945.5 466.7L960 465L960 541L945.5 541C931 541 902 541 872.8 541C843.7 541 814.3 541 785.2 541C756 541 727 541 698 541C669 541 640 541 611 541C582 541 553 541 523.8 541C494.7 541 465.3 541 436.2 541C407 541 378 541 349 541C320 541 291 541 262 541C233 541 204 541 174.8 541C145.7 541 116.3 541 87.2 541C58 541 29 541 14.5 541L0 541Z" fill="#ff3e79"></path><path d="M0 499L14.5 497C29 495 58 491 87.2 488.8C116.3 486.7 145.7 486.3 174.8 488.7C204 491 233 496 262 495.3C291 494.7 320 488.3 349 488.3C378 488.3 407 494.7 436.2 495C465.3 495.3 494.7 489.7 523.8 490.5C553 491.3 582 498.7 611 502.7C640 506.7 669 507.3 698 506.5C727 505.7 756 503.3 785.2 501.2C814.3 499 843.7 497 872.8 494.8C902 492.7 931 490.3 945.5 489.2L960 488L960 541L945.5 541C931 541 902 541 872.8 541C843.7 541 814.3 541 785.2 541C756 541 727 541 698 541C669 541 640 541 611 541C582 541 553 541 523.8 541C494.7 541 465.3 541 436.2 541C407 541 378 541 349 541C320 541 291 541 262 541C233 541 204 541 174.8 541C145.7 541 116.3 541 87.2 541C58 541 29 541 14.5 541L0 541Z" fill="#ff586a"></path><path d="M0 509L14.5 509C29 509 58 509 87.2 509.8C116.3 510.7 145.7 512.3 174.8 515C204 517.7 233 521.3 262 521.8C291 522.3 320 519.7 349 516.3C378 513 407 509 436.2 509C465.3 509 494.7 513 523.8 514.5C553 516 582 515 611 515.8C640 516.7 669 519.3 698 519.5C727 519.7 756 517.3 785.2 514.3C814.3 511.3 843.7 507.7 872.8 508C902 508.3 931 512.7 945.5 514.8L960 517L960 541L945.5 541C931 541 902 541 872.8 541C843.7 541 814.3 541 785.2 541C756 541 727 541 698 541C669 541 640 541 611 541C582 541 553 541 523.8 541C494.7 541 465.3 541 436.2 541C407 541 378 541 349 541C320 541 291 541 262 541C233 541 204 541 174.8 541C145.7 541 116.3 541 87.2 541C58 541 29 541 14.5 541L0 541Z" fill="#ff6f61"></path></svg>